<svg version="1.1" viewBox="0 0 14 14" xmlns="http://www.w3.org/2000/svg">
	<g>
		<rect width="14" height="14" rx="2.0754" ry="2.0547" fill="#900" fill-rule="evenodd"/>
		<g transform="matrix(.96767 0 0 1.9949 .45276 -6.9349)" fill="#fefefe">
			<path d="m4.9979 5.8777-3.1055 1.1133 3.1055 1.1055v0.97266l-4.1289-1.6211v-0.92188l4.1289-1.625z"/>
			<path d="m8.534 5.8777v-0.97656l4.1289 1.625v0.92188l-4.1289 1.6211v-0.97266l3.1055-1.1055z"/>
		</g>
		<path d="m8.1739 10.27-0.514-1.6559a1.9032 1.9032 0 0 0 0.83178-0.82184c0.49227-0.94139 0.12728-2.1066-0.81412-2.5988-0.94139-0.49227-2.1066-0.12728-2.5988 0.81412-0.49227 0.94139-0.12728 2.1066 0.81412 2.5988 0.36974 0.19334 0.7663 0.25222 1.152 0.20037l0.52267 1.6533c0.024298 0.08514 0.083361 0.15224 0.15447 0.18944 0.071093 0.0372 0.16126 0.0518 0.24371 0.01875a0.31967 0.31967 0 0 0 0.2097-0.40099zm-2.0878-2.0334c-0.73665-0.38519-1.0229-1.2991-0.63773-2.0357 0.38519-0.73665 1.2991-1.0229 2.0357-0.63773 0.73665 0.38519 1.0229 1.2991 0.63773 2.0357-0.38519 0.73665-1.2991 1.0229-2.0357 0.63773z" fill="#fefefe" fill-rule="evenodd" stroke="#fefefe" stroke-width=".4"/>
	</g>
</svg>
