<?xml version="1.0" standalone="no"?>
<!DOCTYPE svg PUBLIC "-//W3C//DTD SVG 20010904//EN"
 "http://www.w3.org/TR/2001/REC-SVG-20010904/DTD/svg10.dtd">
<svg version="1.0" xmlns="http://www.w3.org/2000/svg"
 width="700.000000pt" height="700.000000pt" viewBox="0 0 700.000000 700.000000"
 preserveAspectRatio="xMidYMid meet">
<metadata>
Created by potrace 1.11, written by Peter Selinger 2001-2013
</metadata>
<g transform="translate(0.000000,700.000000) scale(0.100000,-0.100000)"
fill="#000000" stroke="none">
<path d="M2604 5547 c-22 -17 -60 -48 -85 -69 -24 -20 -145 -118 -269 -218
-124 -101 -243 -197 -265 -216 -39 -32 -164 -133 -400 -324 -64 -52 -125 -102
-135 -110 -10 -8 -35 -28 -56 -45 -20 -16 -186 -150 -367 -298 -181 -147 -341
-276 -355 -288 l-26 -20 0 -455 c-1 -251 1 -460 4 -464 5 -8 70 -61 551 -450
112 -90 211 -170 219 -177 8 -7 58 -47 110 -89 52 -42 106 -86 120 -97 14 -12
81 -67 150 -121 69 -55 127 -102 130 -106 3 -3 25 -21 50 -40 25 -19 47 -37
50 -40 3 -3 52 -44 110 -90 58 -46 110 -89 116 -95 6 -5 26 -21 44 -35 18 -14
50 -38 70 -55 20 -16 55 -45 78 -63 22 -19 50 -41 61 -50 50 -43 120 -95 127
-96 5 -1 9 214 9 477 l0 479 -135 99 c-74 54 -146 107 -159 116 -127 95 -214
158 -381 280 -107 78 -204 149 -215 157 -11 8 -86 64 -166 123 -81 59 -212
155 -292 213 -80 58 -146 108 -146 113 -1 4 54 48 122 98 67 50 134 100 149
111 65 49 279 207 336 248 54 39 361 266 432 320 31 23 316 233 349 257 13 10
43 32 65 49 l41 31 0 487 c0 267 0 486 0 486 0 0 -18 -15 -41 -33z"/>
<path d="M4355 5092 l0 -486 105 -78 c58 -43 150 -111 205 -151 55 -39 102
-74 105 -77 3 -3 66 -50 140 -105 74 -54 221 -162 325 -240 105 -77 231 -171
280 -207 50 -37 147 -108 216 -160 l126 -93 -241 -177 c-133 -98 -323 -238
-424 -311 -100 -74 -195 -144 -210 -155 -37 -28 -437 -322 -472 -347 -15 -11
-55 -39 -89 -63 -33 -23 -62 -46 -62 -50 -1 -4 -2 -224 -3 -489 -1 -501 -2
-489 34 -453 3 3 28 23 55 45 28 21 52 42 55 45 3 3 25 21 50 40 69 54 82 64
99 80 9 8 37 31 61 50 25 19 54 42 65 52 11 9 58 47 105 85 47 38 144 116 215
174 151 123 341 276 579 468 149 120 433 350 492 399 12 9 59 48 105 85 l84
68 -1 459 0 459 -30 23 c-32 26 -792 642 -924 750 -47 38 -92 75 -100 81 -64
52 -279 225 -295 239 -34 29 -568 461 -610 494 l-40 32 0 -486z"/>
<path d="M3355 4512 c-459 -23 -831 -350 -910 -800 -80 -455 189 -915 623
-1067 114 -40 198 -53 332 -53 122 0 124 0 131 -23 7 -24 173 -549 230 -729
36 -111 55 -141 105 -165 101 -48 223 23 226 131 1 22 -23 116 -54 219 -31 99
-88 281 -126 405 -39 124 -73 233 -77 242 -5 12 2 22 22 34 204 126 339 275
419 464 54 130 75 223 78 359 9 312 -143 615 -399 802 -122 89 -319 164 -460
175 -38 3 -74 6 -80 7 -5 1 -32 1 -60 -1z m175 -222 c494 -89 763 -641 530
-1086 -195 -373 -638 -512 -1017 -321 -35 17 -63 35 -63 39 0 5 -6 8 -14 8 -7
0 -47 33 -88 73 -105 101 -155 178 -198 308 -32 93 -32 93 -35 224 -3 95 0
135 16 195 80 308 330 529 639 567 25 3 46 6 47 7 7 6 126 -4 183 -14z"/>
</g>
</svg>
